<svg width="23" height="22" viewBox="0 0 23 22" fill="none" xmlns="http://www.w3.org/2000/svg">
<path d="M2.39893 4.18519C2.39893 4.01128 2.47355 3.8445 2.60637 3.72153C2.73919 3.59856 2.91934 3.52948 3.10718 3.52948H3.63412C4.53124 3.52948 5.06952 4.08814 5.37643 4.60746C5.58135 4.95367 5.72961 5.35497 5.84576 5.71867C5.87718 5.71637 5.90868 5.7152 5.9402 5.71517H17.7426C18.5264 5.71517 19.093 6.40934 18.8776 7.10789L17.1514 12.7111C16.9966 13.2137 16.6692 13.6559 16.2187 13.9708C15.7681 14.2857 15.2191 14.4561 14.6546 14.4562H9.03763C8.46866 14.4562 7.91543 14.2832 7.46297 13.9638C7.01051 13.6445 6.68387 13.1964 6.53324 12.6884L5.81555 10.2649L4.62568 6.55098L4.62473 6.54398C4.47742 6.04827 4.33954 5.58403 4.13368 5.23781C3.93631 4.90122 3.77766 4.84089 3.63507 4.84089H3.10718C2.91934 4.84089 2.73919 4.77181 2.60637 4.64884C2.47355 4.52587 2.39893 4.35909 2.39893 4.18519ZM7.18956 9.94666L7.89876 12.3413C8.04041 12.8152 8.50597 13.1448 9.03763 13.1448H14.6546C14.9111 13.1448 15.1607 13.0674 15.3656 12.9243C15.5704 12.7812 15.7193 12.5802 15.7897 12.3518L17.43 7.02658H6.25655L7.17634 9.90032L7.18956 9.94666Z" fill="#535399"/>
<path d="M10.4258 17.0808C10.4258 17.5445 10.2268 17.9893 9.87261 18.3172C9.51842 18.6451 9.03802 18.8293 8.53712 18.8293C8.03621 18.8293 7.55581 18.6451 7.20162 18.3172C6.84742 17.9893 6.64844 17.5445 6.64844 17.0808C6.64844 16.617 6.84742 16.1723 7.20162 15.8444C7.55581 15.5164 8.03621 15.3322 8.53712 15.3322C9.03802 15.3322 9.51842 15.5164 9.87261 15.8444C10.2268 16.1723 10.4258 16.617 10.4258 17.0808V17.0808ZM9.00929 17.0808C9.00929 16.9648 8.95954 16.8536 8.87099 16.7717C8.78244 16.6897 8.66234 16.6436 8.53712 16.6436C8.41189 16.6436 8.29179 16.6897 8.20324 16.7717C8.11469 16.8536 8.06495 16.9648 8.06495 17.0808C8.06495 17.1967 8.11469 17.3079 8.20324 17.3899C8.29179 17.4718 8.41189 17.5179 8.53712 17.5179C8.66234 17.5179 8.78244 17.4718 8.87099 17.3899C8.95954 17.3079 9.00929 17.1967 9.00929 17.0808Z" fill="#535399"/>
<path d="M17.0361 17.0808C17.0361 17.5445 16.8372 17.9893 16.483 18.3172C16.1288 18.6451 15.6484 18.8293 15.1475 18.8293C14.6466 18.8293 14.1662 18.6451 13.812 18.3172C13.4578 17.9893 13.2588 17.5445 13.2588 17.0808C13.2588 16.617 13.4578 16.1723 13.812 15.8444C14.1662 15.5164 14.6466 15.3322 15.1475 15.3322C15.6484 15.3322 16.1288 15.5164 16.483 15.8444C16.8372 16.1723 17.0361 16.617 17.0361 17.0808V17.0808ZM15.6196 17.0808C15.6196 16.9648 15.5699 16.8536 15.4813 16.7717C15.3928 16.6897 15.2727 16.6436 15.1475 16.6436C15.0222 16.6436 14.9021 16.6897 14.8136 16.7717C14.725 16.8536 14.6753 16.9648 14.6753 17.0808C14.6753 17.1967 14.725 17.3079 14.8136 17.3899C14.9021 17.4718 15.0222 17.5179 15.1475 17.5179C15.2727 17.5179 15.3928 17.4718 15.4813 17.3899C15.5699 17.3079 15.6196 17.1967 15.6196 17.0808Z" fill="#535399"/>
</svg>
