<svg width="15" height="14" viewBox="0 0 15 14" fill="none" xmlns="http://www.w3.org/2000/svg">
<g clip-path="url(#clip0_91_709)">
<path d="M13.1661 4.60447L9.61693 4.12692L8.03034 1.14907C7.98701 1.06753 7.91572 1.00153 7.82765 0.961413C7.60679 0.860469 7.3384 0.944589 7.22796 1.14907L5.64138 4.12692L2.09219 4.60447C1.99434 4.61741 1.90487 4.66012 1.83638 4.72482C1.75357 4.80362 1.70794 4.90963 1.70951 5.01956C1.71108 5.12949 1.75973 5.23434 1.84476 5.31108L4.41265 7.62891L3.80598 10.9018C3.79175 10.978 3.80085 11.0563 3.83225 11.1279C3.86364 11.1995 3.91608 11.2615 3.9836 11.3069C4.05113 11.3523 4.13105 11.3793 4.21429 11.3848C4.29754 11.3903 4.38079 11.374 4.45459 11.338L7.62915 9.79274L10.8037 11.338C10.8904 11.3807 10.991 11.3949 11.0875 11.3794C11.3307 11.3406 11.4943 11.127 11.4523 10.9018L10.8457 7.62891L13.4135 5.31108C13.4834 5.24766 13.5296 5.16484 13.5435 5.07425C13.5813 4.84777 13.4107 4.63811 13.1661 4.60447Z" fill="#B2B2B2"/>
</g>
<defs>
<clipPath id="clip0_91_709">
<rect width="14.3142" height="13.2522" fill="white" transform="translate(0.472168 0.03479)"/>
</clipPath>
</defs>
</svg>
