<svg width="15" height="14" viewBox="0 0 15 14" fill="none" xmlns="http://www.w3.org/2000/svg">
<g clip-path="url(#clip0_91_705)">
<path d="M13.1734 4.60447L9.62425 4.12692L8.03767 1.14907C7.99433 1.06753 7.92304 1.00153 7.83497 0.961413C7.61411 0.860469 7.34572 0.944589 7.23529 1.14907L5.64871 4.12692L2.09951 4.60447C2.00166 4.61741 1.9122 4.66012 1.8437 4.72482C1.76089 4.80362 1.71526 4.90963 1.71684 5.01956C1.71841 5.12949 1.76706 5.23434 1.85209 5.31108L4.41998 7.62891L3.8133 10.9018C3.79907 10.978 3.80817 11.0563 3.83957 11.1279C3.87097 11.1995 3.9234 11.2615 3.99093 11.3069C4.05845 11.3523 4.13837 11.3793 4.22162 11.3848C4.30487 11.3903 4.38811 11.374 4.46191 11.338L7.63648 9.79274L10.811 11.338C10.8977 11.3807 10.9984 11.3949 11.0948 11.3794C11.338 11.3406 11.5016 11.127 11.4597 10.9018L10.853 7.62891L13.4209 5.31108C13.4908 5.24766 13.5369 5.16484 13.5509 5.07425C13.5886 4.84777 13.4181 4.63811 13.1734 4.60447Z" fill="#FFC416"/>
</g>
<defs>
<clipPath id="clip0_91_705">
<rect width="14.3142" height="13.2522" fill="white" transform="translate(0.479492 0.03479)"/>
</clipPath>
</defs>
</svg>
