<svg width="23" height="21" viewBox="0 0 23 21" fill="none" xmlns="http://www.w3.org/2000/svg">
<path d="M18.7158 4.39217C17.766 3.51256 16.5067 2.97777 15.167 2.88505C13.8273 2.79233 12.4961 3.14784 11.4156 3.88693C10.2773 3.1031 8.86051 2.74767 7.4505 2.89222C6.04048 3.03677 4.742 3.67057 3.81653 4.66598C2.89105 5.66139 2.40734 6.94447 2.46279 8.25685C2.51823 9.56922 3.10873 10.8134 4.11536 11.7388L10.7804 17.9094C10.8636 17.987 10.9625 18.0486 11.0715 18.0907C11.1806 18.1327 11.2975 18.1544 11.4156 18.1544C11.5337 18.1544 11.6506 18.1327 11.7597 18.0907C11.8687 18.0486 11.9676 17.987 12.0508 17.9094L18.7158 11.7388C19.2371 11.2566 19.6506 10.6839 19.9327 10.0536C20.2149 9.42335 20.3601 8.74777 20.3601 8.06551C20.3601 7.38324 20.2149 6.70767 19.9327 6.07738C19.6506 5.44709 19.2371 4.87445 18.7158 4.39217ZM17.4544 10.571L11.4156 16.1535L5.3768 10.571C4.84464 10.0763 4.48214 9.44709 4.33475 8.76236C4.18736 8.07763 4.26166 7.36785 4.54832 6.72206C4.83498 6.07628 5.32124 5.52324 5.9461 5.13232C6.57095 4.74141 7.30659 4.53003 8.06071 4.52469C9.06817 4.52698 10.0335 4.89934 10.7446 5.56002C10.8278 5.63765 10.9267 5.69927 11.0358 5.74132C11.1448 5.78337 11.2617 5.80502 11.3798 5.80502C11.4979 5.80502 11.6149 5.78337 11.7239 5.74132C11.8329 5.69927 11.9318 5.63765 12.015 5.56002C12.7471 4.97268 13.6929 4.66479 14.6609 4.69865C15.629 4.73251 16.547 5.10559 17.2291 5.74239C17.9113 6.37919 18.3066 7.23214 18.3352 8.12861C18.3637 9.02508 18.0233 9.89811 17.3828 10.571H17.4544Z" fill="#535399"/>
</svg>
