<svg width="20" height="19" viewBox="0 0 20 19" fill="none" xmlns="http://www.w3.org/2000/svg">
<path d="M12.4445 8.04062H10.0588V5.83192C10.0588 5.63666 9.97501 5.4494 9.82588 5.31133C9.67674 5.17326 9.47447 5.09569 9.26356 5.09569C9.05265 5.09569 8.85038 5.17326 8.70125 5.31133C8.55211 5.4494 8.46833 5.63666 8.46833 5.83192V8.04062H6.08263C5.87172 8.04062 5.66945 8.11819 5.52031 8.25626C5.37118 8.39433 5.2874 8.58159 5.2874 8.77685C5.2874 8.97211 5.37118 9.15937 5.52031 9.29744C5.66945 9.43552 5.87172 9.51308 6.08263 9.51308H8.46833V11.7218C8.46833 11.917 8.55211 12.1043 8.70125 12.2424C8.85038 12.3804 9.05265 12.458 9.26356 12.458C9.47447 12.458 9.67674 12.3804 9.82588 12.2424C9.97501 12.1043 10.0588 11.917 10.0588 11.7218V9.51308H12.4445C12.6554 9.51308 12.8577 9.43552 13.0068 9.29744C13.1559 9.15937 13.2397 8.97211 13.2397 8.77685C13.2397 8.58159 13.1559 8.39433 13.0068 8.25626C12.8577 8.11819 12.6554 8.04062 12.4445 8.04062ZM17.7805 15.6164L14.8302 12.9071C15.9754 11.5851 16.53 9.90719 16.3799 8.21827C16.2299 6.52936 15.3866 4.95786 14.0234 3.8269C12.6603 2.69595 10.8809 2.0915 9.05117 2.13786C7.22143 2.18421 5.48042 2.87784 4.18611 4.07611C2.89181 5.27439 2.14259 6.88624 2.09252 8.58022C2.04246 10.2742 2.69534 11.9216 3.91693 13.1836C5.13851 14.4456 6.83595 15.2263 8.66022 15.3652C10.4845 15.5042 12.2969 14.9907 13.7248 13.9305L16.6513 16.6398C16.7252 16.7088 16.8132 16.7636 16.9101 16.801C17.007 16.8383 17.1109 16.8576 17.2159 16.8576C17.3209 16.8576 17.4248 16.8383 17.5217 16.801C17.6186 16.7636 17.7066 16.7088 17.7805 16.6398C17.9238 16.5025 18.004 16.3191 18.004 16.1281C18.004 15.9372 17.9238 15.7537 17.7805 15.6164ZM9.26356 13.9305C8.16259 13.9305 7.08633 13.6282 6.17091 13.0619C5.25548 12.4956 4.54199 11.6908 4.12066 10.7491C3.69934 9.80736 3.5891 8.77113 3.80389 7.77143C4.01868 6.77172 4.54885 5.85344 5.32736 5.13269C6.10587 4.41194 7.09774 3.92111 8.17757 3.72225C9.25739 3.5234 10.3766 3.62546 11.3938 4.01552C12.411 4.40559 13.2804 5.06614 13.892 5.91365C14.5037 6.76116 14.8302 7.75756 14.8302 8.77685C14.8302 10.1437 14.2437 11.4545 13.1998 12.421C12.1558 13.3875 10.7399 13.9305 9.26356 13.9305Z" fill="#535399"/>
</svg>
